<svg xmlns="http://www.w3.org/2000/svg" viewBox="0 0 226.63 69.33" >
<path class="st0" d="M68.81,69.1H0V0.28h68.81V69.1L68.81,69.1z M160.26,0.23v9.85h2.84V6.27h3.85V4.08h-3.85V2.48h3.9V0.23H160.26
	L160.26,0.23z M153.03,7.8c-1.26,0-1.9-1.01-1.9-2.64c0-1.62,0.64-2.64,1.9-2.64c1.28,0,1.87,1.01,1.87,2.64
	C154.9,6.78,154.3,7.8,153.03,7.8L153.03,7.8z M153.03,10.32c2.94,0,4.91-1.87,4.91-5.16c0-3.29-1.97-5.16-4.91-5.16
	c-2.93,0-4.94,1.87-4.94,5.16C148.09,8.45,150.1,10.32,153.03,10.32L153.03,10.32z M136.97,10.08h2.84V6.48l3.4-6.24h-3.14
	l-1.61,3.52h-0.06l-1.55-3.52h-3.22l3.33,6.24V10.08L136.97,10.08z M127.87,10.08h2.84V2.54h2.45v-2.3h-7.75v2.3h2.46V10.08
	L127.87,10.08z M119.24,10.08V0.23h2.84v7.52h3.52v2.33H119.24L119.24,10.08z M112.17,10.32c2.32,0,4.25-1.11,4.25-3.87V0.23h-2.84
	v5.95c0,1.12-0.61,1.61-1.41,1.61c-0.8,0-1.4-0.49-1.4-1.61V0.23h-2.84v6.22C107.92,9.2,109.85,10.32,112.17,10.32L112.17,10.32z
	 M103.1,10.24c1.17,0,2.16-0.31,2.75-0.61V7.16c-0.56,0.3-1.22,0.57-2.25,0.57c-1.03,0-2.52-0.78-2.52-2.57
	c0-1.78,1.36-2.62,2.68-2.62c0.9,0,1.52,0.2,2.07,0.48V0.56c-0.58-0.26-1.3-0.46-2.46-0.46c-2.91,0-5.39,1.91-5.39,5.06
	C97.98,8.3,100.2,10.24,103.1,10.24L103.1,10.24z M90.83,6.03l0.97-3.64h0.13l0.97,3.64H90.83L90.83,6.03z M93.99,10.08h2.91
	l-2.96-9.85h-4.16l-2.94,9.85h2.91l0.54-2.04h3.14L93.99,10.08L93.99,10.08z M79.48,0.23v9.85h2.84V6.27h3.85V4.08h-3.85V2.48h3.9
	V0.23H79.48L79.48,0.23z M222.44,25.07c2.69,0,4.19-1.7,4.19-3.33c0-1.61-0.82-2.55-2.43-2.94c-0.65-0.16-1.02-0.22-1.51-0.32
	c-0.67-0.15-0.96-0.33-0.96-0.71c0-0.43,0.49-0.71,1.59-0.71c1.2,0,2.2,0.38,2.69,0.65v-2.45c-0.64-0.28-1.68-0.51-2.84-0.51
	c-2.45,0-4.26,1.29-4.26,3.29c0,1.52,0.86,2.48,2.19,2.81c0.74,0.19,1.13,0.28,1.77,0.44c0.54,0.13,0.9,0.3,0.9,0.7
	c0,0.49-0.52,0.77-1.48,0.77c-1.31,0-2.62-0.57-3.26-1.01v2.58C219.84,24.77,220.96,25.07,222.44,25.07L222.44,25.07z M210,24.84
	h6.79v-2.25h-3.96V21h3.83v-2.19h-3.83v-1.58h3.96v-2.25H210V24.84L210,24.84z M205.1,25c1.17,0,2.16-0.3,2.75-0.61v-2.48
	c-0.56,0.31-1.22,0.56-2.25,0.56c-1.03,0-2.52-0.78-2.52-2.56c0-1.78,1.36-2.62,2.68-2.62c0.9,0,1.52,0.2,2.07,0.48v-2.45
	c-0.58-0.26-1.3-0.46-2.46-0.46c-2.91,0-5.39,1.91-5.39,5.06C199.99,23.06,202.2,25,205.1,25L205.1,25z M188.34,24.84h2.84v-5.91
	h0.05l2.98,5.91h3.46v-9.85h-2.84v5.88h-0.04l-2.96-5.88h-3.49V24.84L188.34,24.84z M178.95,24.84h6.8v-2.25h-3.96V21h3.83v-2.19
	h-3.83v-1.58h3.96v-2.25h-6.8V24.84L178.95,24.84z M173.21,24.84h2.84v-9.85h-2.84V24.84L173.21,24.84z M168.31,25
	c1.17,0,2.16-0.3,2.75-0.61v-2.48c-0.56,0.31-1.22,0.56-2.24,0.56c-1.03,0-2.52-0.78-2.52-2.56c0-1.78,1.36-2.62,2.68-2.62
	c0.9,0,1.52,0.2,2.07,0.48v-2.45c-0.58-0.26-1.3-0.46-2.46-0.46c-2.91,0-5.39,1.91-5.39,5.06C163.2,23.06,165.42,25,168.31,25
	L168.31,25z M157.3,25.07c2.69,0,4.19-1.7,4.19-3.33c0-1.61-0.82-2.55-2.43-2.94c-0.65-0.16-1.02-0.22-1.51-0.32
	c-0.67-0.15-0.96-0.33-0.96-0.71c0-0.43,0.49-0.71,1.59-0.71c1.2,0,2.2,0.38,2.69,0.65v-2.45c-0.64-0.28-1.68-0.51-2.84-0.51
	c-2.45,0-4.26,1.29-4.26,3.29c0,1.52,0.85,2.48,2.19,2.81c0.74,0.19,1.13,0.28,1.77,0.44c0.54,0.13,0.9,0.3,0.9,0.7
	c0,0.49-0.52,0.77-1.48,0.77c-1.3,0-2.62-0.57-3.26-1.01v2.58C154.69,24.77,155.82,25.07,157.3,25.07L157.3,25.07z M142.91,19.53
	v-2.45h1.14c0.77,0,1.22,0.59,1.22,1.22c0,0.62-0.45,1.23-1.22,1.23H142.91L142.91,19.53z M140.07,24.84h2.84v-3.46h0.73l1.71,3.46
	h3.2l-1.81-3.04c-0.19-0.32-0.42-0.61-0.55-0.69l0.02-0.06c0.87-0.39,2.1-1.13,2.1-2.81c0-1.77-1.41-3.25-3.71-3.25h-4.52V24.84
	L140.07,24.84z M132.48,20.78l0.97-3.64h0.13l0.97,3.64H132.48L132.48,20.78z M135.64,24.84h2.91l-2.96-9.85h-4.16l-2.94,9.85h2.91
	l0.54-2.04h3.14L135.64,24.84L135.64,24.84z M120.2,24.84h6.8v-2.25h-3.95V21h3.82v-2.19h-3.82v-1.58h3.95v-2.25h-6.8V24.84
	L120.2,24.84z M112.39,24.84h6.36V22.5h-3.52v-7.52h-2.84V24.84L112.39,24.84z M107.49,25c1.17,0,2.16-0.3,2.75-0.61v-2.48
	c-0.56,0.31-1.22,0.56-2.25,0.56c-1.03,0-2.52-0.78-2.52-2.56c0-1.78,1.36-2.62,2.68-2.62c0.9,0,1.52,0.2,2.07,0.48v-2.45
	c-0.58-0.26-1.3-0.46-2.46-0.46c-2.91,0-5.39,1.91-5.39,5.06C102.38,23.06,104.59,25,107.49,25L107.49,25z M95.88,25.07
	c2.32,0,4.25-1.12,4.25-3.87v-6.22h-2.84v5.96c0,1.12-0.61,1.61-1.4,1.61c-0.8,0-1.41-0.49-1.41-1.61v-5.96h-2.84v6.22
	C91.64,23.95,93.57,25.07,95.88,25.07L95.88,25.07z M79.48,24.84h2.84v-5.91h0.04l2.99,5.91h3.46v-9.85h-2.84v5.88h-0.04l-2.96-5.88
	h-3.49V24.84L79.48,24.84z M183.41,39.59h6.36v-2.33h-3.52v-7.52h-2.84V39.59L183.41,39.59z M175.82,35.53l0.97-3.64h0.13l0.97,3.64
	H175.82L175.82,35.53z M178.98,39.59h2.91l-2.96-9.85h-4.16l-2.94,9.85h2.91l0.54-2.04h3.14L178.98,39.59L178.98,39.59z
	 M167.85,39.75c1.17,0,2.16-0.3,2.75-0.61v-2.48c-0.56,0.3-1.22,0.56-2.25,0.56c-1.03,0-2.52-0.78-2.52-2.56
	c0-1.78,1.36-2.62,2.68-2.62c0.9,0,1.52,0.2,2.07,0.48v-2.45c-0.58-0.26-1.3-0.46-2.46-0.46c-2.91,0-5.39,1.91-5.39,5.06
	C162.74,37.81,164.95,39.75,167.85,39.75L167.85,39.75z M157.58,39.59h2.84v-9.85h-2.84V39.59L157.58,39.59z M151.1,39.82
	c2.69,0,4.19-1.7,4.19-3.33c0-1.61-0.83-2.55-2.43-2.94c-0.65-0.16-1.01-0.22-1.51-0.32c-0.67-0.15-0.96-0.33-0.96-0.71
	c0-0.44,0.49-0.71,1.59-0.71c1.2,0,2.2,0.38,2.7,0.65v-2.45c-0.64-0.27-1.68-0.51-2.84-0.51c-2.45,0-4.26,1.29-4.26,3.29
	c0,1.52,0.86,2.48,2.19,2.81c0.74,0.19,1.13,0.27,1.77,0.43c0.54,0.13,0.9,0.31,0.9,0.7c0,0.49-0.52,0.77-1.48,0.77
	c-1.3,0-2.62-0.57-3.26-1.01v2.58C148.49,39.52,149.62,39.82,151.1,39.82L151.1,39.82z M140.51,39.59h2.84v-3.61l3.4-6.24h-3.15
	L142,33.26h-0.06l-1.55-3.52h-3.22l3.33,6.24V39.59L140.51,39.59z M127.24,29.74v9.85h2.84v-3.86h2.91v3.86h2.84v-9.85h-2.84v3.77
	h-2.91v-3.77H127.24L127.24,29.74z M119.95,34.29v-2.43h1.12c0.62,0,1.19,0.52,1.19,1.22c0,0.71-0.56,1.22-1.19,1.22H119.95
	L119.95,34.29z M117.11,39.59h2.84V36.4h1.45c2.3,0,3.74-1.46,3.74-3.27c0-1.81-1.43-3.39-3.74-3.39h-4.29V39.59L117.11,39.59z
	 M105.04,37.14v-4.95h0.59c1.36,0,2.4,0.88,2.4,2.48c0,1.59-1.04,2.48-2.4,2.48H105.04L105.04,37.14z M102.2,39.59h3.9
	c2.83,0,5.06-1.96,5.06-4.93c0-2.97-2.23-4.93-5.06-4.93h-3.9V39.59L102.2,39.59z M89.97,39.59h2.84v-5.91h0.04l2.99,5.91h3.46
	v-9.85h-2.84v5.88h-0.04l-2.96-5.88h-3.49V39.59L89.97,39.59z M82.38,35.53l0.97-3.64h0.13l0.97,3.64H82.38L82.38,35.53z
	 M85.54,39.59h2.91l-2.96-9.85h-4.16l-2.94,9.85h2.91l0.54-2.04h3.14L85.54,39.59L85.54,39.59z M181.73,54.58
	c1.75,0,2.97-0.54,3.56-0.84v-4.36h-2.77v2.67c-0.2,0.04-0.42,0.07-0.64,0.07c-1.1,0-2.32-0.84-2.32-2.69c0-2,1.07-2.98,2.91-2.98
	c1.01,0,1.88,0.35,2.42,0.64v-2.32c-0.58-0.26-1.53-0.62-2.84-0.62c-3.35,0-5.59,2.07-5.59,5.29
	C176.47,52.64,178.97,54.58,181.73,54.58L181.73,54.58z M164.82,54.35h2.84v-5.91h0.04l2.99,5.91h3.46v-9.85h-2.84v5.88h-0.04
	l-2.96-5.88h-3.49V54.35L164.82,54.35z M159.08,54.35h2.84v-9.85h-2.84V54.35L159.08,54.35z M151.39,49.04v-2.45h1.14
	c0.77,0,1.22,0.59,1.22,1.22c0,0.62-0.45,1.23-1.22,1.23H151.39L151.39,49.04z M148.55,54.35h2.84v-3.46h0.72l1.71,3.46h3.2
	l-1.81-3.04c-0.19-0.32-0.42-0.61-0.55-0.7l0.01-0.06c0.87-0.39,2.1-1.13,2.1-2.81c0-1.77-1.41-3.25-3.71-3.25h-4.52V54.35
	L148.55,54.35z M139.16,54.35h6.79V52.1H142v-1.59h3.83v-2.19H142v-1.58h3.95v-2.25h-6.79V54.35L139.16,54.35z M129.77,54.35h6.8
	V52.1h-3.96v-1.59h3.83v-2.19h-3.83v-1.58h3.96v-2.25h-6.8V54.35L129.77,54.35z M117.54,54.35h2.84v-5.91h0.04l2.99,5.91h3.46v-9.85
	h-2.84v5.88h-0.04l-2.96-5.88h-3.49V54.35L117.54,54.35z M111.81,54.35h2.84v-9.85h-2.84V54.35L111.81,54.35z M105.78,54.58
	c1.75,0,2.97-0.54,3.57-0.84v-4.36h-2.77v2.67c-0.2,0.04-0.42,0.07-0.64,0.07c-1.1,0-2.32-0.84-2.32-2.69c0-2,1.07-2.98,2.91-2.98
	c1.01,0,1.88,0.35,2.42,0.64v-2.32c-0.58-0.26-1.53-0.62-2.84-0.62c-3.35,0-5.59,2.07-5.59,5.29
	C100.52,52.64,103.03,54.58,105.78,54.58L105.78,54.58z M88.87,54.35h2.84v-5.91h0.04l2.98,5.91h3.46v-9.85h-2.84v5.88h-0.04
	l-2.96-5.88h-3.49V54.35L88.87,54.35z M79.48,54.35h6.8V52.1h-3.95v-1.59h3.83v-2.19h-3.83v-1.58h3.95v-2.25h-6.8V54.35L79.48,54.35
	z M186.96,69.1h6.79v-2.25h-3.95v-1.59h3.83v-2.19h-3.83v-1.58h3.95v-2.25h-6.79V69.1L186.96,69.1z M179.89,69.33
	c2.32,0,4.25-1.11,4.25-3.87v-6.22h-2.84v5.96c0,1.12-0.61,1.61-1.41,1.61c-0.8,0-1.4-0.49-1.4-1.61v-5.96h-2.84v6.22
	C175.64,68.22,177.57,69.33,179.89,69.33L179.89,69.33z M169.69,69.33c1.75,0,2.97-0.53,3.56-0.84v-4.36h-2.77v2.67
	c-0.2,0.04-0.42,0.07-0.64,0.07c-1.1,0-2.32-0.84-2.32-2.7c0-2,1.07-2.98,2.91-2.98c1.02,0,1.88,0.35,2.42,0.64v-2.32
	c-0.58-0.26-1.54-0.62-2.84-0.62c-3.35,0-5.59,2.07-5.59,5.29C164.43,67.39,166.94,69.33,169.69,69.33L169.69,69.33z M157.27,65.04
	l0.97-3.64h0.13l0.97,3.64H157.27L157.27,65.04z M160.43,69.1h2.91l-2.96-9.85h-4.16l-2.94,9.85h2.91l0.54-2.04h3.14L160.43,69.1
	L160.43,69.1z M147.07,63.8v-2.45h1.14c0.77,0,1.22,0.59,1.22,1.22c0,0.62-0.45,1.23-1.22,1.23H147.07L147.07,63.8z M144.23,69.1
	h2.84v-3.46h0.72l1.71,3.46h3.2l-1.81-3.04c-0.19-0.32-0.42-0.61-0.55-0.69l0.01-0.06c0.87-0.39,2.1-1.13,2.1-2.81
	c0-1.77-1.41-3.25-3.71-3.25h-4.52V69.1L144.23,69.1z M136.94,63.8v-2.43h1.12c0.62,0,1.19,0.52,1.19,1.22
	c0,0.71-0.56,1.22-1.19,1.22H136.94L136.94,63.8z M134.1,69.1h2.84v-3.19h1.45c2.3,0,3.74-1.46,3.74-3.27
	c0-1.81-1.43-3.39-3.74-3.39h-4.29V69.1L134.1,69.1z M118.24,69.1h2.84v-5.91h0.04l2.98,5.91h3.46v-9.85h-2.84v5.88h-0.04
	l-2.96-5.88h-3.49V69.1L118.24,69.1z M112.5,69.1h2.84v-9.85h-2.84V69.1L112.5,69.1z M101.8,69.33c2.32,0,4.25-1.11,4.25-3.87v-6.22
	h-2.84v5.96c0,1.12-0.61,1.61-1.4,1.61c-0.8,0-1.41-0.49-1.41-1.61v-5.96h-2.84v6.22C97.55,68.22,99.48,69.33,101.8,69.33
	L101.8,69.33z M90.48,69.1h2.84v-7.55h2.45v-2.3h-7.75v2.3h2.46V69.1L90.48,69.1z M84.02,69.26c1.17,0,2.16-0.31,2.75-0.61v-2.48
	c-0.57,0.3-1.22,0.57-2.25,0.57c-1.03,0-2.52-0.78-2.52-2.57c0-1.78,1.36-2.62,2.68-2.62c0.9,0,1.52,0.2,2.07,0.48v-2.45
	c-0.58-0.26-1.3-0.46-2.46-0.46c-2.91,0-5.39,1.91-5.39,5.06C78.9,67.32,81.12,69.26,84.02,69.26L84.02,69.26z M55.77,30.13
	l1.76-1.29c-0.67-0.72-1.38-1.57-1.38-2.95c0-1.05,0.72-2.19,1.62-2.67c-0.48-0.57-1.24-1.1-2.33-1.1c-1.43,0-2.62,1.05-2.62,2.43
	c0,0.95,0.62,1.76,1.34,2.15C54.15,28.03,54.77,29.22,55.77,30.13L55.77,30.13z M46.34,20.74l1.48-2.62h-2.19c0,0.48-0.43,1-0.95,1
	c-0.57,0-0.95-0.38-0.95-1h-1.95c0,0.57-0.43,1-0.95,1c-0.52,0-0.95-0.43-0.95-1h-2.19l1.29,2.52c1-0.1,1.95-0.14,2.91-0.14
	C43.62,20.5,45.15,20.6,46.34,20.74L46.34,20.74z M42.34,43.99c-0.24-0.43-0.48-0.95-0.48-1.91c0-1.24,0.71-2.29,2.24-2.95
	c1-0.48,1.76-0.91,3.1-1.57c3.14-1.62,4.24-4.67,4.24-7.81c0-1.57-0.43-2.81-0.95-3.86c0.14,0.86,0.28,1.57,0.28,2.43
	c0,3.29-1.14,5.72-4.14,7.19c-1.9,0.95-2.86,1.33-4,1.9c-1.62,0.86-2.52,1.95-2.52,3.29C40.1,42.37,40.96,43.61,42.34,43.99
	L42.34,43.99z M40.48,43.37c-0.52-0.52-1.1-1.48-1.1-2.71c0-1.57,1.05-2.91,2.91-3.86c1.62-0.76,2.57-1.14,4-1.81
	c3-1.48,3.91-4,3.91-6.72c0-2.62-0.86-3.95-1.57-4.81c0.52,1,0.67,2.19,0.67,3.19c0,2.91-0.86,5.43-4.24,6.77
	c-1.72,0.71-2.81,0.95-4.29,1.62c-2.33,1.1-3.24,2.38-3.24,4.29C37.53,41.13,38.67,42.85,40.48,43.37L40.48,43.37z M38.67,42.99
	c-0.81-0.67-1.86-1.76-1.86-3.72c0-2.05,0.86-3.57,3.53-4.72c1.72-0.71,2.62-1.05,4.24-1.67c3.43-1.29,4.14-3.81,4.14-6.29
	c0-2.38-0.86-3.76-1.9-4.67c0.62,0.76,1,2.05,1,3.38c0,3.14-1.19,4.91-4.57,6.1c-1.38,0.43-2.86,0.86-4.38,1.43
	c-2.76,1.05-4.19,2.57-4.19,5.15C34.67,40.66,36.72,42.66,38.67,42.99L38.67,42.99z M36.76,42.66c-1.91-0.95-2.81-3-2.81-4.81
	c0-2.62,1.62-4.48,4.34-5.48c1.67-0.62,3-1,4.67-1.57c3.24-1.14,4.29-2.67,4.29-5.57c0-1.67-0.62-3.1-1.62-3.91
	c0.33,0.38,0.43,0.86,0.43,1.29c0,0.81-0.43,1.19-1.05,1.19c-0.38,0-0.76-0.24-0.81-0.62c0.19,0.14,0.33,0.19,0.53,0.19
	c0.52,0,0.81-0.38,0.81-0.91c0-0.81-0.76-1.24-1.52-1.33c-0.67-0.1-1.38-0.1-2.19-0.1c-0.81,0-1.57,0.05-2.57,0.1
	c0.62,0.86,2.67,0.62,3.29,1.05c-0.52-0.05-1.05-0.05-1.57,0.09c0,0.33-0.14,0.72-0.48,0.72c-0.62,0-0.9-0.67-1.33-1.86l-2.43,0.19
	c-0.38,0.05-0.53,0.19-0.48,0.48l0.24,2.38c0,0.1,0.1,0.14,0.19,0.14c0.09,0,0.19-0.05,0.24-0.19C37,23.93,37.29,23.5,38,23.5
	c1.05,0,1.86,0.95,1.9,2.05c-0.38-0.53-1.24-1-2.67-1c-1.1,0-2,0.33-3.43,0.33c-1.52,0-2.38-0.57-2.38-1.29
	c0-0.33,0.05-0.52,0.24-0.76c-0.62,0.29-1.09,0.81-1.09,1.67c0,1.05,0.76,2.14,3,2.14c2.05,0,3-1.29,4.86-1.29
	c0.86,0,1.29,0.43,1.29,0.91c0,0.43-0.38,0.81-1.05,0.81c-0.81,0-1.38-0.43-1.67-0.86c-0.05-0.1-0.09-0.14-0.19-0.14
	c-0.14,0-0.19,0.09-0.19,0.19l0.05,2.29c0,0.29,0.14,0.43,0.48,0.38c1.43-0.14,2.9-0.33,4.29-0.43c2.57-0.24,4.34-1.95,4.34-3.86
	c0-0.29,0-0.52-0.05-0.81c0.24,0.38,0.33,0.76,0.33,1.24c0,1.76-0.95,3.1-4,3.91c-1.62,0.43-2.81,0.62-4.19,0.95
	c-3.67,0.86-6.05,3.67-6.05,6.81C31.81,39.65,33.86,42.27,36.76,42.66L36.76,42.66z M20.8,25.46c0.57-0.19,1-0.62,1-1.29
	c0-0.71-0.62-1.24-1.33-1.24c0.29,0.24,0.57,0.81,0.57,1.43C21.04,24.65,21,25.03,20.8,25.46L20.8,25.46z M29.57,36.8l1.52-0.81
	c0.52-3.19,2.43-5.43,5.76-6.24c-1.76,0.09-3.29,0.14-5.43,0.24c-2.29,0.09-6.05,0.38-8.67,0.57c-0.52,0.05-0.86-0.14-1-0.57
	c-0.14-0.48-0.43-1.38-0.48-1.91c-0.05-0.43,0.05-0.71,0.43-1c0.76-0.52,1.53-1.14,1.53-2.43c0-1.38-1.19-2.29-2.29-2.29
	c-0.38,0-0.67,0.05-0.91,0.14c-0.29-0.19-0.57-0.33-1.14-0.33c-0.81,0-1.52,0.52-1.72,0.95c-1.38-0.1-2.48,0.91-2.38,2.24
	c0.19-0.19,0.57-0.38,1-0.38c0.52,0,1,0.38,1,0.95c0,0.52-0.09,1.19-0.09,1.91c0,2.19,1.76,3.33,1.76,4.48c0,0.57-0.43,1.05-1,1.05
	c0.33,1.19,1.43,1.81,2.91,1.81c0.95,0,1.81-0.09,3.19-0.09C27.52,35.08,29.24,35.51,29.57,36.8L29.57,36.8z M44.24,50.28h0.48
	c-0.05-1.52-0.43-2.57-1.05-3.67c-0.34-0.62-0.76-1.29-1.1-1.71c-0.19-0.29-0.43-0.38-0.71-0.38c-0.19,0-0.33,0.14-0.19,0.38
	c0.38,0.62,0.91,1.57,1.57,3.05c-0.57,0.1-0.71,0.38-0.71,0.86C42.53,49.56,43.24,50.28,44.24,50.28L44.24,50.28z M18.95,25.65
	c0.43-0.29,0.57-0.76,0.57-1.19c0-0.81-0.67-1.33-1.29-1.33c-0.29,0-0.48,0.09-0.62,0.14C18.42,23.6,19,24.31,18.95,25.65
	L18.95,25.65z M49.48,59.19c0.1-0.76-0.38-1.48-1.29-1.48c-0.76,0-1.14,0.43-1.19,0.81c0.19-0.1,0.48-0.19,0.91-0.19
	C48.67,58.33,49.29,58.76,49.48,59.19L49.48,59.19z M49.2,61.23c0-0.67-0.48-1.33-1.43-1.33c-0.9,0-1.38,0.71-1.29,1.29
	c0.19-0.24,0.57-0.57,1.34-0.57C48.44,60.62,48.91,60.9,49.2,61.23L49.2,61.23z M15.33,38.51c0.33-0.81,1.1-1.38,2-1.57
	c0.19-0.29,0.43-0.53,0.67-0.71l-1.62-6.77c-0.19-0.48-0.34-0.95-0.34-1.62c0-0.71,0.14-1.43,0.14-1.81c0-0.33-0.19-0.43-0.38-0.43
	c-0.14,0-0.24,0-0.29,0.05v0.19c0,1.1-0.67,1.95-1.76,1.95c-1.1,0-1.95-0.91-1.95-1.95c0-1.05,0.86-1.9,1.95-1.9
	c0.19,0,0.43,0,0.71,0.09c0.33-0.86,1.38-1.62,2.48-1.48c-0.76-0.95-1.9-1.53-3.19-1.53c-2.76,0-4.95,2-4.95,4.81
	c0,2.62,2.14,4.72,4.81,4.76L15.33,38.51L15.33,38.51z M22.71,48.75c0.71,0,1.48-0.38,2.19-1.1c1.29-1.24,3.1-3.1,4.19-3.81
	c0.95-0.62,1.57-0.86,2.19-0.86c0.38,0,0.67,0.1,0.95,0.38l1.62-1.24c-1.86-1.38-2.72-3.19-2.76-5.43c-2.57,1.38-4.43,3.29-6.57,5.1
	c-0.38,0.29-0.57,0.43-0.91,0.43c-0.33,0-0.62-0.33-1.19-0.9c-0.48-0.48-0.57-0.76-0.57-1.1c0-0.57,0.19-0.76,0.19-1.52
	c0-1.52-1.19-2.38-2.33-2.38c-0.95,0-1.67,0.52-1.91,1.19c-1.29,0.09-2.1,1.05-2.1,2.05c0,0.24,0.05,0.43,0.1,0.57
	c-0.48,0.29-0.95,0.86-0.95,1.62c0,0.81,0.43,1.57,1.14,1.81c-0.1-0.14-0.14-0.33-0.14-0.57c0-0.43,0.38-0.81,0.91-0.81
	c0.43,0,0.71,0.14,1.05,0.52c0.43,0.57,0.86,1.1,1.57,1.71c0.67,0.57,1.43,0.95,2.14,1.38c0.43,0.29,0.76,0.67,0.76,1.24
	c0,0.38-0.28,0.81-0.86,0.95C21.66,48.51,22.14,48.75,22.71,48.75L22.71,48.75z M20,39.46c0.14-0.24,0.29-0.48,0.29-0.95
	c0-0.62-0.52-1.19-1.19-1.19c-0.38,0-0.62,0.14-0.76,0.24C19.23,37.75,19.95,38.51,20,39.46L20,39.46z M25.28,64.52
	C25.09,64.28,25,64.05,25,63.76c0-0.57,0.48-1,1.14-1c1.05,0,1.62,1.15,3,1.15c1.57,0,2.33-1.15,3.76-1.15
	c0.72,0,1.72,0.43,1.72,1.34c0,0.14-0.05,0.29-0.14,0.38c1.62,0,2.76-1.38,2.76-3.67c0-3.19-0.09-4.48-0.14-6.24
	c1.24-0.05,2.43-0.67,2.24-2.62c-0.33,0.29-0.71,0.43-1.14,0.43c-0.57,0-1-0.43-1-1.05c0-0.29,0-0.62,0.05-0.95l5.57-0.14
	c-0.52-0.28-0.9-0.86-0.9-1.52c0-0.48,0.19-0.81,0.57-1c-0.52-1.1-0.95-1.95-1.48-2.76c-0.29-0.43-0.62-0.86-1.29-0.86
	c-1.48-0.05-4.48,0.38-6,0.9c-1.14,0.38-2.24,1.24-2.24,3.19c0,1.81,0.62,5,0.57,10c0,0.71-0.19,0.95-0.62,1.05
	c-0.38,0.1-1.38,0.19-2,0.1c-0.33-0.05-0.62-0.29-0.81-1c-0.24-1-0.95-2-2.38-2c-1.29,0-2.43,0.95-2.24,2.38
	c-0.62,0.38-0.91,1-0.91,1.57c0,0.57,0.19,1.05,0.43,1.34c-0.14,0.33-0.19,0.52-0.19,0.86C23.33,63.67,24.38,64.52,25.28,64.52
	L25.28,64.52z M18.57,40.75c0.14-0.9-0.38-1.53-1.19-1.53c-0.62,0-1.05,0.33-1.14,0.72c0.19-0.05,0.43-0.1,0.71-0.1
	C17.66,39.85,18.28,40.18,18.57,40.75L18.57,40.75z M26.9,59.19c0.09-0.76-0.38-1.48-1.29-1.48c-0.76,0-1.14,0.43-1.19,0.81
	c0.19-0.1,0.48-0.19,0.91-0.19C26.09,58.33,26.71,58.76,26.9,59.19L26.9,59.19z M22.85,63.33c-0.14-0.29-0.19-0.57-0.19-0.86
	c0-0.29,0.05-0.53,0.14-0.76c-0.24-0.43-0.38-0.91-0.38-1.43c0-0.71,0.33-1.38,0.81-1.81l-2.95-12.82
	c-0.48-0.24-0.95-0.52-1.33-0.86c-0.67-0.57-1.05-1-1.67-1.71c-0.19-0.19-0.34-0.29-0.52-0.29c-0.29,0-0.48,0.19-0.38,0.57
	l0.62,2.95l1.29,0.91l3.57,15.34L22.85,63.33L22.85,63.33z M26.62,61.23c0-0.67-0.48-1.33-1.43-1.33c-0.91,0-1.38,0.71-1.29,1.29
	c0.19-0.24,0.57-0.57,1.33-0.57C25.86,60.62,26.33,60.9,26.62,61.23L26.62,61.23z M3.08,64.81l2.91-2.24l3.57-15.34l1.29-0.91
	l2.86-12.29l-0.62-2.86c-0.71-0.14-1.33-0.33-1.86-0.62L3.08,64.81L3.08,64.81z M47.87,64.52c-0.19-0.24-0.29-0.48-0.29-0.76
	c0-0.57,0.48-1,1.14-1c1.05,0,1.62,1.15,3,1.15c1.57,0,2.33-1.15,3.76-1.15c0.72,0,1.71,0.43,1.71,1.34c0,0.14-0.05,0.29-0.14,0.38
	c1.62,0,2.76-1.38,2.76-3.67c0-3.05-0.29-6.43-0.62-9.81c0.86-0.19,1.67-1.05,1.67-2.14c0-0.38-0.14-0.81-0.38-1.19
	c-0.24,0.33-0.67,0.62-1.38,0.81c-1,0.29-2.24,0.43-3.14,0.43c-2.05,0-2.72-0.14-3.67-0.43c-0.05-1.29-0.86-2.33-1.62-3.05
	c1.19,0.48,1.71,0.71,3.62,0.71c6.1,0,9.86-4.1,9.86-8.77c0-3.38-2.14-4.95-4.1-6.1l-1.81,1.29c2.19,1,3.62,2.48,3.62,4.48
	c0,2.19-1.76,3.76-3.81,3.76c-2.19,0-3.91-1.57-3.91-3.72c0-1.62,0.76-2.81,2.19-3.95c1.43-1.14,3.62-2.53,4.81-3.81
	c0.62-0.67,1.14-1.72,1.1-2.53c0.81-0.38,1.43-1.19,1.43-2.24c0-1.38-1.33-2.43-2.76-2.43c-0.86,0-1.81,0.52-2.29,1.1
	c0.86,0.33,1.67,1.48,1.67,2.67c0,1-0.62,1.86-1.33,2.57c-1.1,1.1-2.52,1.91-4.1,3.19c-1.91,1.57-3.05,3.43-3.05,5.53
	c0,2.91,2.24,5.62,5.76,5.62c1.14,0,2.05-0.24,2.72-0.67c-1.14,1.33-3.29,2-5.53,2c-1.96,0-3.29-0.29-4.72-1.33
	c-1.29-0.95-2.29-3.19-2.24-4.86c-1.05,0.62-2.29,1.19-3.33,1.67c-1.48,0.71-1.95,1.48-1.95,2.76c0,1.71,1.19,3.05,1.71,4.05
	c0.72,1.29,0.95,2.43,1.05,3.62c0.29,2.91,1.95,4.24,4.91,4.24c1.34,0,3.1-0.09,3.81-0.19c0.29,1.33,0.62,2.91,0.62,4.1
	c0,0.71-0.19,0.95-0.62,1.05c-0.38,0.1-1.38,0.19-2,0.1c-0.33-0.05-0.62-0.29-0.81-1c-0.24-1-0.95-2-2.38-2
	c-1.29,0-2.43,0.95-2.24,2.38c-0.62,0.38-0.91,1-0.91,1.57c0,0.57,0.19,1.05,0.43,1.34c-0.14,0.33-0.19,0.52-0.19,0.86
	C45.91,63.67,46.96,64.52,47.87,64.52L47.87,64.52z M0.66,68.44h67.49V0.95H0.66V68.44z" fill="white"/>
</svg>
