<svg xmlns="http://www.w3.org/2000/svg">
    <symbol id="twitter">
      <path d="M21.429.665H2.57C1.151.665 0 1.865 0 3.344v19.643c0 1.48 1.152 2.679 2.571 2.679H21.43c1.42 0 2.571-1.2 2.571-2.679V3.344C24 1.865 22.848.665 21.429.665Zm-2.62 8.862c.01.156.01.318.01.475 0 4.838-3.535 10.413-9.996 10.413a9.663 9.663 0 0 1-5.394-1.641c.284.034.557.045.846.045 1.645 0 3.155-.58 4.36-1.563-1.542-.033-2.839-1.088-3.283-2.539.54.084 1.028.084 1.585-.067-1.607-.34-2.812-1.814-2.812-3.594v-.044c.466.273 1.013.44 1.586.463a3.603 3.603 0 0 1-1.15-1.319 3.774 3.774 0 0 1-.415-1.728c0-.681.172-1.306.477-1.847 1.73 2.22 4.329 3.672 7.243 3.828-.498-2.483 1.286-4.498 3.429-4.498 1.012 0 1.923.44 2.566 1.155a6.72 6.72 0 0 0 2.228-.882A3.627 3.627 0 0 1 18.546 8.2a6.772 6.772 0 0 0 2.025-.57 7.573 7.573 0 0 1-1.762 1.898Z" />
    </symbol>
    <symbol id="linked-in">
      <path d="M22.286.665H1.709C.766.665 0 1.475 0 2.468v21.395c0 .994.766 1.803 1.709 1.803h20.577c.943 0 1.714-.81 1.714-1.803V2.468c0-.993-.771-1.803-1.714-1.803ZM7.254 22.095H3.696V10.162H7.26v11.931h-.005ZM5.475 8.533c-1.141 0-2.062-.966-2.062-2.149s.92-2.148 2.062-2.148c1.136 0 2.063.965 2.063 2.148 0 1.189-.922 2.149-2.063 2.149Zm15.112 13.56H17.03v-5.803c0-1.384-.026-3.164-1.848-3.164-1.853 0-2.137 1.506-2.137 3.063v5.904H9.488v-11.93H12.9v1.629h.048c.477-.938 1.64-1.925 3.37-1.925 3.6 0 4.27 2.472 4.27 5.686v6.54Z" />
    </symbol>
    <symbol id="instagram">
      <path d="M12 10.189c-.565 0-1.117.175-1.587.502s-.836.792-1.052 1.336a3.092 3.092 0 0 0-.162 1.72c.11.577.382 1.108.782 1.524.4.416.909.7 1.463.814a2.752 2.752 0 0 0 1.65-.17 2.887 2.887 0 0 0 1.283-1.096c.314-.49.482-1.065.482-1.653-.001-.79-.302-1.547-.838-2.105A2.803 2.803 0 0 0 12 10.19Zm6.68-2.288a3.027 3.027 0 0 0-.645-1.025 2.885 2.885 0 0 0-.983-.672c-1.125-.463-3.804-.359-5.052-.359-1.248 0-3.924-.108-5.052.359-.369.152-.704.38-.984.672-.28.292-.5.641-.645 1.025-.444 1.172-.345 3.965-.345 5.264 0 1.3-.099 4.089.347 5.265.145.384.365.733.645 1.024.28.292.615.521.984.673 1.125.462 3.803.359 5.052.359 1.249 0 3.924.107 5.052-.36.369-.15.703-.38.984-.672.28-.291.5-.64.645-1.024.447-1.172.345-3.965.345-5.264 0-1.3.102-4.089-.345-5.264l-.002-.001ZM12 17.741a4.269 4.269 0 0 1-2.44-.77 4.541 4.541 0 0 1-1.618-2.054 4.753 4.753 0 0 1-.25-2.644A4.638 4.638 0 0 1 8.894 9.93a4.342 4.342 0 0 1 2.249-1.252 4.23 4.23 0 0 1 2.538.26 4.437 4.437 0 0 1 1.972 1.685c.482.753.74 1.638.74 2.543 0 .6-.113 1.196-.333 1.752a4.589 4.589 0 0 1-.952 1.485 4.38 4.38 0 0 1-1.426.992 4.234 4.234 0 0 1-1.682.347Zm4.574-8.275a.996.996 0 0 1-.57-.18 1.06 1.06 0 0 1-.378-.48 1.11 1.11 0 0 1-.058-.616c.04-.208.137-.398.28-.547.143-.15.326-.252.525-.293a.987.987 0 0 1 .593.06c.187.082.347.219.46.394a1.1 1.1 0 0 1 .173.594 1.105 1.105 0 0 1-.298.756.988.988 0 0 1-.725.314l-.002-.002Zm4.855-8.8H2.57a2.52 2.52 0 0 0-1.818.784A2.736 2.736 0 0 0 0 3.344v19.643c0 .71.27 1.392.753 1.894a2.52 2.52 0 0 0 1.818.785H21.43a2.52 2.52 0 0 0 1.818-.785A2.736 2.736 0 0 0 24 22.987V3.344c0-.71-.27-1.392-.753-1.894a2.52 2.52 0 0 0-1.818-.785Zm-.918 16.183c-.069 1.43-.382 2.697-1.384 3.739-1.003 1.041-2.218 1.374-3.59 1.442-1.415.083-5.656.083-7.071 0-1.373-.072-2.585-.399-3.59-1.442-1.003-1.044-1.319-2.312-1.384-3.74-.08-1.474-.08-5.893 0-7.365.069-1.43.379-2.698 1.385-3.74 1.006-1.04 2.221-1.37 3.589-1.438 1.415-.083 5.657-.083 7.071 0 1.373.072 2.59.399 3.59 1.443 1 1.043 1.32 2.311 1.384 3.741.08 1.469.08 5.884 0 7.36Z"/>
    </symbol>
  </svg>